<svg width="1216" height="193" viewBox="0 0 1216 193" fill="none" xmlns="http://www.w3.org/2000/svg">
<path d="M51.9324 4.75H0L103.5 183.75L207 4.75H155.068L103.5 93.9346L51.9324 4.75Z" fill="#FF0000"/>
<path d="M244.25 96.25C244.25 125.385 264.22 149 293.75 149C323.019 149 343 125.017 343 96.25C343 67.7934 323.833 43.5 293.75 43.5C263.691 43.5 244.25 67.7652 244.25 96.25ZM199.5 96.25C199.5 71.4177 208.449 47.5935 226.5 30.25C244.372 13.0789 269.22 4.75 293.75 4.75C318.296 4.75 343.112 13.0637 361 30.25C378.955 47.501 387.75 71.59 387.75 96.25C387.75 120.921 379.053 145.546 361.25 163C343.354 180.896 318.769 189.25 293.75 189.25C268.508 189.25 243.959 180.852 225.75 163C208.008 145.258 199.5 121.101 199.5 96.25Z" fill="white"/>
<path d="M535.572 8.74999H576.322V192.5L455.322 85.25V183.75H414.822V0L535.572 107.25V8.74999Z" fill="white"/>
<path d="M595.809 46.5V8.74999H734.309V46.5H686.059V183.75H643.809V46.5H595.809Z" fill="white"/>
<path d="M753.445 8.74999H796.445V183.75H753.445V8.74999Z" fill="white"/>
<path d="M920.273 120.5V88H1008.77C1010.29 113.469 1003.92 139.538 987.523 159.5C970.669 180.018 945.347 189.25 919.273 189.25C894.024 189.25 868.988 181.49 850.523 163.75C832.287 145.871 823.523 121.556 823.523 96.25C823.523 71.2848 832.534 46.7216 851.273 29.75C870.187 12.6208 895.538 4.75 920.773 4.75C952.716 4.75 981.721 19.4454 999.773 46.25L962.273 65.75C953.581 50.5386 938.275 41.5 920.773 41.5C889.279 41.5 867.773 66.0178 867.773 96.25C867.773 127.478 889.23 152.5 920.773 152.5C942.388 152.5 959.842 141.293 966.773 120.5H920.273Z" fill="white"/>
<path d="M1071.89 96.25C1071.89 125.385 1091.86 149 1121.39 149C1151.24 149 1170.64 124.514 1170.64 96.25C1170.64 67.118 1150.93 43.5 1121.39 43.5C1091.33 43.5 1071.89 67.7652 1071.89 96.25ZM1027.14 96.25C1027.14 71.4177 1036.09 47.5935 1054.14 30.25C1072.01 13.0789 1096.86 4.75 1121.39 4.75C1145.93 4.75 1170.75 13.0637 1188.64 30.25C1206.59 47.501 1215.39 71.59 1215.39 96.25C1215.39 120.921 1206.69 145.546 1188.89 163C1170.99 180.896 1146.41 189.25 1121.39 189.25C1096.14 189.25 1071.6 180.852 1053.39 163C1035.64 145.258 1027.14 121.101 1027.14 96.25Z" fill="white"/>
</svg>
