<svg width="1216" height="193" viewBox="0 0 1216 193" fill="none" xmlns="http://www.w3.org/2000/svg">
<path d="M51.9324 4.75H0L103.5 183.75L207 4.75H155.068L103.5 93.9346L51.9324 4.75Z" fill="#FF0000"/>
<path d="M244.25 96.25C244.25 106.583 246.25 115.75 250.25 123.75C254.417 131.583 260.167 137.75 267.5 142.25C275 146.75 283.75 149 293.75 149C303.583 149 312.167 146.75 319.5 142.25C327 137.75 332.75 131.583 336.75 123.75C340.917 115.75 343 106.583 343 96.25C343 85.9167 341 76.8333 337 69C333 61 327.333 54.75 320 50.25C312.667 45.75 303.917 43.5 293.75 43.5C283.75 43.5 275 45.75 267.5 50.25C260.167 54.75 254.417 61 250.25 69C246.25 76.8333 244.25 85.9167 244.25 96.25ZM199.5 96.25C199.5 82.75 201.833 70.4167 206.5 59.25C211.333 48.0833 218 38.4167 226.5 30.25C235 22.0833 245 15.8333 256.5 11.5C268 7 280.417 4.75 293.75 4.75C307.25 4.75 319.667 7 331 11.5C342.5 15.8333 352.5 22.0833 361 30.25C369.5 38.4167 376.083 48.0833 380.75 59.25C385.417 70.4167 387.75 82.75 387.75 96.25C387.75 109.75 385.417 122.167 380.75 133.5C376.25 144.833 369.75 154.667 361.25 163C352.917 171.333 343 177.833 331.5 182.5C320 187 307.417 189.25 293.75 189.25C279.917 189.25 267.25 187 255.75 182.5C244.25 177.833 234.25 171.333 225.75 163C217.417 154.667 210.917 144.833 206.25 133.5C201.75 122.167 199.5 109.75 199.5 96.25Z" fill="white"/>
<path d="M535.572 8.74999H576.322V192.5L455.322 85.25V183.75H414.822V0L535.572 107.25V8.74999Z" fill="white"/>
<path d="M595.809 46.5V8.74999H734.309V46.5H686.059V183.75H643.809V46.5H595.809Z" fill="white"/>
<path d="M753.445 8.74999H796.445V183.75H753.445V8.74999Z" fill="white"/>
<path d="M920.273 120.5V88H1008.77C1009.61 102 1008.19 115.083 1004.52 127.25C1000.86 139.417 995.19 150.167 987.523 159.5C979.857 168.833 970.273 176.167 958.773 181.5C947.273 186.667 934.107 189.25 919.273 189.25C905.273 189.25 892.44 187.083 880.773 182.75C869.107 178.25 859.023 171.917 850.523 163.75C842.023 155.417 835.357 145.583 830.523 134.25C825.857 122.75 823.523 110.083 823.523 96.25C823.523 82.4167 825.94 69.9167 830.773 58.75C835.607 47.4167 842.44 37.75 851.273 29.75C860.107 21.75 870.44 15.5833 882.273 11.25C894.107 6.91666 906.94 4.75 920.773 4.75C933.107 4.75 944.19 6.5 954.023 9.99999C963.857 13.5 972.523 18.4167 980.023 24.75C987.69 30.9167 994.273 38.0833 999.773 46.25L962.273 65.75C958.273 58.75 952.857 53 946.023 48.5C939.357 43.8333 930.94 41.5 920.773 41.5C911.107 41.5 902.19 43.6667 894.023 48C886.023 52.3333 879.607 58.5833 874.773 66.75C870.107 74.75 867.773 84.5833 867.773 96.25C867.773 107.75 870.023 117.75 874.523 126.25C879.19 134.583 885.44 141.083 893.273 145.75C901.273 150.25 910.44 152.5 920.773 152.5C927.107 152.5 932.857 151.75 938.023 150.25C943.19 148.583 947.607 146.333 951.273 143.5C954.94 140.5 958.023 137.083 960.523 133.25C963.19 129.25 965.273 125 966.773 120.5H920.273Z" fill="white"/>
<path d="M1071.89 96.25C1071.89 106.583 1073.89 115.75 1077.89 123.75C1082.05 131.583 1087.8 137.75 1095.14 142.25C1102.64 146.75 1111.39 149 1121.39 149C1131.22 149 1139.8 146.75 1147.14 142.25C1154.64 137.75 1160.39 131.583 1164.39 123.75C1168.55 115.75 1170.64 106.583 1170.64 96.25C1170.64 85.9167 1168.64 76.8333 1164.64 69C1160.64 61 1154.97 54.75 1147.64 50.25C1140.3 45.75 1131.55 43.5 1121.39 43.5C1111.39 43.5 1102.64 45.75 1095.14 50.25C1087.8 54.75 1082.05 61 1077.89 69C1073.89 76.8333 1071.89 85.9167 1071.89 96.25ZM1027.14 96.25C1027.14 82.75 1029.47 70.4167 1034.14 59.25C1038.97 48.0833 1045.64 38.4167 1054.14 30.25C1062.64 22.0833 1072.64 15.8333 1084.14 11.5C1095.64 7 1108.05 4.75 1121.39 4.75C1134.89 4.75 1147.3 7 1158.64 11.5C1170.14 15.8333 1180.14 22.0833 1188.64 30.25C1197.14 38.4167 1203.72 48.0833 1208.39 59.25C1213.05 70.4167 1215.39 82.75 1215.39 96.25C1215.39 109.75 1213.05 122.167 1208.39 133.5C1203.89 144.833 1197.39 154.667 1188.89 163C1180.55 171.333 1170.64 177.833 1159.14 182.5C1147.64 187 1135.05 189.25 1121.39 189.25C1107.55 189.25 1094.89 187 1083.39 182.5C1071.89 177.833 1061.89 171.333 1053.39 163C1045.05 154.667 1038.55 144.833 1033.89 133.5C1029.39 122.167 1027.14 109.75 1027.14 96.25Z" fill="white"/>
</svg>
