<svg fill="none" height="150" viewBox="0 0 150 150" width="150" xmlns="http://www.w3.org/2000/svg" xmlns:xlink="http://www.w3.org/1999/xlink"><clipPath id="a"><path d="m0 0h150v150h-150z"/></clipPath><g clip-path="url(#a)"><path d="m150.588 136.028c0 8.039-6.514 14.56-14.56 14.56h-121.4685c-8.03755 0-14.55943896-6.522-14.55943896-14.56v-121.4686c0-8.0391 6.52188896-14.5594 14.55943896-14.5594h121.4685c8.046 0 14.56 6.5203 14.56 14.5594z" fill="#f6c915"/><g fill="#fff"><path d="m61.3688 105.497c-4.85 0-8.6578-.633-11.4234-1.895-2.7656-1.265-4.7484-2.988-5.9422-5.177-1.1969-2.1844-1.7765-4.6875-1.7422-7.5281.0328-2.8344.425-5.8563 1.1782-9.0672l13.0109-54.4016 15.8813-2.4578-14.2407 59.0125c-.2734 1.2281-.4265 2.3563-.4609 3.3797-.0359 1.0235.1531 1.9297.5625 2.7141.4094.7875 1.1094 1.4187 2.1 1.8953.989.4797 2.3734.7875 4.15.9234l-3.0735 12.5937"/><path d="m118.728 71.5906c0 4.9844-.82 9.5438-2.459 13.6766-1.639 4.1344-3.911 7.7016-6.813 10.7062-2.903 3.0079-6.386 5.3456-10.4496 7.0176-4.0641 1.672-8.4875 2.511-13.2657 2.511-2.3234 0-4.6453-.207-6.9671-.618l-4.611 18.546h-15.1625l17.0063-70.8909c2.7312-.8188 5.8562-1.5532 9.3734-2.2032 3.5188-.6484 7.3266-.9718 11.425-.9718 3.8252 0 7.1222.5797 9.8862 1.7406 2.767 1.1609 5.037 2.75 6.814 4.7641 1.775 2.0156 3.089 4.3718 3.942 7.0687s1.281 5.5844 1.281 8.6594zm-37.1904 21.0094c1.161.2734 2.5953.4094 4.3031.4094 2.6625 0 5.0875-.4938 7.2735-1.4859 2.1843-.9891 4.0469-2.3719 5.5844-4.1485 1.5344-1.775 2.7294-3.9078 3.5844-6.4031.853-2.4922 1.28-5.2406 1.28-8.2469 0-2.9359-.65-5.4297-1.946-7.4797-1.298-2.0484-3.5513-3.0734-6.7606-3.0734-2.1875 0-4.236.2047-6.1485.6156z"/></g></g></svg>